<?xml version="1.0" encoding="utf-8"?>
<!-- Generator: Adobe Illustrator 24.1.0, SVG Export Plug-In . SVG Version: 6.00 Build 0)  -->
<svg version="1.1" id="Calque_1" xmlns="http://www.w3.org/2000/svg" xmlns:xlink="http://www.w3.org/1999/xlink" x="0px" y="0px"
	 viewBox="0 0 721.62 101.25" style="enable-background:new 0 0 721.62 101.25;" xml:space="preserve">
<style type="text/css">
	.st0{fill:#FF680A;}
	.st1{fill:#7A7F82;}
</style>
<g>
	<g>
		<path class="st0" d="M383.66,54.39c0,8.71-5.73,16.1-15.33,16.1c-9.26,0-15.55-7.61-15.55-16.32v-0.22
			c0-8.71,5.74-16.1,15.33-16.1c9.26,0,15.55,7.61,15.55,16.32V54.39z M400.2,54.17v-0.22c0-16.98-13.56-30.54-31.87-30.54
			c-18.42,0-32.09,13.78-32.09,30.76v0.22c0,16.98,13.56,30.55,31.87,30.55C386.52,84.93,400.2,71.15,400.2,54.17"/>
		<path class="st1" d="M275.02,54.17c0,9.93-6.62,16.32-14.44,16.32c-7.83,0-14.34-6.51-14.34-16.32v-0.22
			c0-9.81,6.51-16.32,14.34-16.32c7.83,0,14.44,6.51,14.44,16.32V54.17z M290.11,54.17v-0.22c0-19.74-13.12-30.54-26.9-30.54
			c-8.71,0-14.34,4.08-18.41,9.59v-8.49h-15.76v76.75h15.76V75.89c3.97,4.74,9.48,8.82,18.41,8.82
			C277.21,84.71,290.11,73.91,290.11,54.17"/>
		<path class="st1" d="M218.79,83.61V45.13c0-14.22-7.5-21.72-19.96-21.72c-8.05,0-14.23,3.31-19.41,9.37
			c-3.09-5.95-8.93-9.37-16.65-9.37c-8.49,0-13.56,4.52-17.42,9.48v-8.38h-16.76v59.1h16.76V50.64c0-7.94,3.86-12.02,10.15-12.02
			c6.28,0,9.81,4.08,9.81,12.02v32.97h16.76V50.64c0-7.94,3.86-12.02,10.15-12.02c6.29,0,9.81,4.08,9.81,12.02v32.97H218.79z"/>
		<path class="st1" d="M89.4,72.82c-4.75,0-7.65-2.49-7.65-5.65c0-3.64,1.76-5.52,6.98-6.29c10.9-1.61,13.59-3.22,13.59-3.22
			C103.93,70.98,94.47,72.82,89.4,72.82 M118.56,83.59c0,0-0.1-28.42-0.1-38.38c0-11.77-9.15-21.82-26.37-21.82
			c-17.51,0-25.51,9.88-25.51,22.82h15.65c0.2-1.37-0.51-8.38,9.36-8.38c7.11,0,10.55,2.1,10.55,5.7c0,9.89-36.23-1.51-36.23,24.75
			c0,12.73,9.29,16.65,18,16.65c13.4,0,18.23-7.56,18.23-7.56l-0.14,6.2L118.56,83.59z"/>
		<path class="st1" d="M43.88,62.31c-0.76,3.27-4.51,8.18-12.34,8.18c-9.15,0-15-7.28-15-16.32v-0.22c0-8.71,5.96-16.1,14.34-16.1
			c8.21,0,11.9,4.49,13,8.36h15.65c-0.25-7.38-7.03-22.8-28.54-22.8C12.9,23.41,0,37.3,0,54.17v0.22
			c0,16.87,13.01,30.54,30.77,30.54c21.19,0,28.51-15.67,28.76-22.62H43.88z"/>
		<path class="st1" d="M681.57,54.17c0,9.93-6.62,16.32-14.44,16.32c-7.83,0-14.34-6.51-14.34-16.32v-0.22
			c0-9.81,6.51-16.32,14.34-16.32c7.83,0,14.44,6.51,14.44,16.32V54.17z M696.65,54.17v-0.22c0-19.74-13.12-30.54-26.91-30.54
			c-8.71,0-14.34,4.08-18.41,9.59v-8.49h-15.76v76.75h15.76V75.89c3.97,4.74,9.48,8.82,18.41,8.82
			C683.75,84.71,696.65,73.91,696.65,54.17"/>
		<path class="st1" d="M625.33,83.61V45.13c0-14.22-7.5-21.72-19.96-21.72c-8.05,0-14.23,3.31-19.41,9.37
			c-3.09-5.95-8.93-9.37-16.65-9.37c-8.49,0-13.56,4.52-17.42,9.48v-8.38h-16.76v59.1h16.76V50.64c0-7.94,3.86-12.02,10.15-12.02
			c6.28,0,9.81,4.08,9.81,12.02v32.97h16.76V50.64c0-7.94,3.86-12.02,10.15-12.02c6.29,0,9.81,4.08,9.81,12.02v32.97H625.33z"/>
		<path class="st1" d="M495.94,72.82c-4.75,0-7.65-2.49-7.65-5.65c0-3.64,1.76-5.52,6.98-6.29c10.9-1.61,13.59-3.22,13.59-3.22
			C510.47,70.98,501.01,72.82,495.94,72.82 M525.1,83.59c0,0-0.1-28.42-0.1-38.38c0-11.77-9.15-21.82-26.37-21.82
			c-17.51,0-25.51,9.88-25.51,22.82h15.65c0.2-1.37-0.51-8.38,9.36-8.38c7.11,0,10.55,2.1,10.55,5.7c0,9.89-36.23-1.51-36.23,24.75
			c0,12.73,9.29,16.65,18,16.65c13.4,0,18.23-7.56,18.23-7.56l-0.14,6.2L525.1,83.59z"/>
		<path class="st1" d="M450.42,62.31c-0.76,3.27-4.5,8.18-12.34,8.18c-9.15,0-15-7.28-15-16.32v-0.22c0-8.71,5.95-16.1,14.34-16.1
			c8.21,0,11.9,4.49,13,8.36h15.65c-0.25-7.38-7.03-22.8-28.54-22.8c-18.08,0-30.99,13.9-30.99,30.77v0.22
			c0,16.87,13.01,30.54,30.77,30.54c21.19,0,28.51-15.67,28.76-22.62H450.42z"/>
		<path class="st0" d="M708.01,2.72h2.72V0h-2.72V2.72z M699.84,10.89h-2.72v5.45h2.72V10.89z M702.56,8.17h-2.72v2.72h2.72V8.17z
			 M705.28,5.45h-2.72v2.72h2.72V5.45z M708.01,2.72h-2.72v2.72h2.72V2.72z M721.62,24.51V13.62h-2.72v-2.72h-2.72V5.45h-2.72V2.72
			h-2.72v5.45h-2.72v2.72h2.72v2.72h-2.72v-2.72h-2.72v2.72h-2.72v2.72h-2.72v2.72h-2.72v-2.72h-2.72v8.17H721.62z"/>
		<path class="st0" d="M331.54,69.62c0,0-2.21,0.24-5.95,0.24c-3.74,0-5.87-2.34-5.87-6.24V38.84h12.22V24.51h-12.22V9.4h-16.76
			v15.11h-9.4v14.34h9.4v26.97c0,13.68,6.87,18.46,17.2,18.46c7.22,0,11.38-0.71,11.38-0.71V69.62z"/>
	</g>
</g>
</svg>
