<?xml version="1.0" encoding="utf-8"?>
<!-- Generator: Adobe Illustrator 24.1.0, SVG Export Plug-In . SVG Version: 6.00 Build 0)  -->
<svg version="1.1" id="Calque_1" xmlns="http://www.w3.org/2000/svg" xmlns:xlink="http://www.w3.org/1999/xlink" x="0px" y="0px"
	 viewBox="0 0 81.69 73.52" style="enable-background:new 0 0 81.69 73.52;" xml:space="preserve">
<style type="text/css">
	.st0{fill:#FF680A;}
</style>
<g>
	<g>
		<path class="st0" d="M40.84,8.17h8.17V0h-8.17V8.17z M16.34,32.68H8.17v16.34h8.17V32.68z M24.51,24.51h-8.17v8.17h8.17V24.51z
			 M32.68,16.34h-8.17v8.17h8.17V16.34z M40.84,8.17h-8.17v8.17h8.17V8.17z M81.69,73.52V40.85h-8.17v-8.17h-8.17V16.34h-8.17V8.17
			h-8.17v16.34h-8.17v8.17h8.17v8.17h-8.17v-8.17h-8.17v8.17h-8.17v8.17h-8.17v8.17H8.17v-8.17H0v24.51H81.69z"/>
	</g>
</g>
</svg>
